# xmcd
#
# Track frame offsets: 
#        150
#        13230
#        23236
#        37499
#        49329
#        63121
#        80061
#        92139
#        111128
#        126330
#        141449
#        164750
#
# Disc length: 2415 seconds
#
# Revision: 1
# Processed by: cddbd v1.5.2PL0 Copyright (c) Steve Scherf et al.
# Submitted via: ExactAudioCopy v1.3
#
DISCID=b5096d0c
DTITLE=The Rainmakers - 25 On
DYEAR=2011
DGENRE=Country
TTITLE0=Given Time
TTITLE1=Vermillion
TTITLE2=My Own Bed
TTITLE3=Missouri Girl
TTITLE4=Half a Horse Apiece
TTITLE5=These Hills
TTITLE6=Kansas City Times
TTITLE7=Baby Grand
TTITLE8=Like Dogs
TTITLE9=Turpentine
TTITLE10=Last Song of the Evening
TTITLE11=Go Down Swinging
EXTD=
EXTT0=
EXTT1=
EXTT2=
EXTT3=
EXTT4=
EXTT5=
EXTT6=
EXTT7=
EXTT8=
EXTT9=
EXTT10=
EXTT11=
PLAYORDER=
